<?xml version="1.0" standalone="no"?>
<!DOCTYPE svg PUBLIC "-//W3C//DTD SVG 1.1//EN" "http://www.w3.org/Graphics/SVG/1.1/DTD/svg11.dtd" >
<svg xmlns="http://www.w3.org/2000/svg">
<metadata></metadata>
<defs>
<font id="melbournebold" horiz-adv-x="628" >
<font-face units-per-em="2048" ascent="1536" descent="-512" />
<missing-glyph horiz-adv-x="430" />
<glyph horiz-adv-x="0" />
<glyph horiz-adv-x="682" />
<glyph unicode=" "  horiz-adv-x="430" />
<glyph unicode="&#x09;" horiz-adv-x="430" />
<glyph unicode="&#xa0;" horiz-adv-x="430" />
<glyph unicode="!" horiz-adv-x="284" d="M66 59v95q0 26 15.5 42.5t39.5 16.5h102q24 0 40 -16.5t16 -42.5v-95q0 -26 -16 -42.5t-40 -16.5h-102q-24 0 -39.5 16.5t-15.5 42.5zM72 383v991q0 26 14 41t28 17l15 2h80q2 0 6.5 -0.5t15 -4t18.5 -9t14.5 -17.5t6.5 -29v-991q0 -26 -15 -41t-29 -16l-15 -2h-80 q-2 0 -6 0.5t-14.5 3.5t-18 8.5t-14 17.5t-6.5 29z" />
<glyph unicode="&#x22;" horiz-adv-x="555" d="M80 1374q0 26 14.5 43t36.5 17h86q22 0 36.5 -17t14.5 -43l-26 -231q-3 -29 -15 -44.5t-28 -15.5h-49q-32 0 -44 60zM367 1374q0 26 14.5 43t36.5 17h86q22 0 36.5 -17t14.5 -43l-27 -231q-3 -29 -15 -44.5t-28 -15.5h-49q-31 0 -43 60z" />
<glyph unicode="#" horiz-adv-x="1306" d="M52 274l1 15l17 63q0 2 1 5.5t5 12.5t10.5 15.5t19 12t29.5 5.5h201l65 267h-231q-33 0 -47.5 14t-12.5 28l1 15l16 64q1 6 3.5 14.5t19.5 22.5t43 14h251l62 252q6 25 22.5 38t29.5 13h13h66q2 0 6 -0.5t14 -4t14.5 -11t9 -21.5t-2.5 -35l-57 -231h256l63 252 q6 25 22.5 38t29.5 13h14h65q2 0 6 -0.5t14 -4t14.5 -11t9 -21.5t-2.5 -35l-57 -231h215q33 0 47.5 -14.5t12.5 -29.5l-1 -14l-16 -63q-1 -6 -3.5 -14.5t-19.5 -22.5t-43 -14h-233l-66 -267h264q33 0 48 -14.5t14 -28.5l-2 -14l-17 -63q0 -2 -1 -5.5t-5 -12.5t-10.5 -16 t-19 -12.5t-29.5 -5.5h-285l-59 -247q-6 -25 -22.5 -38t-29.5 -14h-14h-65q-2 0 -6 0.5t-14 4t-14.5 11t-9 21.5t2.5 35l55 227h-258l-59 -247q-6 -25 -22.5 -38t-29.5 -14h-14h-65q-2 0 -6 0.5t-14 4t-14.5 11t-9 21.5t2.5 35l55 227h-182q-33 0 -48 14.5t-13 28.5z M514 403h256l66 267h-256z" />
<glyph unicode="$" horiz-adv-x="993" d="M90 406q0 26 15 41t30 17l15 1h81q2 0 6 -0.5t14 -3.5t17.5 -8.5t14 -17.5t6.5 -29q0 -165 125 -211v481l-99 51q-67 34 -112 79.5t-65 95.5t-27 91t-7 88q0 144 86 237.5t222 119.5v102q0 26 15.5 42.5t39.5 16.5h76q24 0 39.5 -16.5t15.5 -42.5v-98 q138 -22 219.5 -110.5t102.5 -219.5q9 -55 -41 -70l-72 -18q-31 -8 -54 3t-30 42q-17 70 -46.5 109.5t-78.5 56.5l2 -434l141 -74q92 -49 144.5 -140t52.5 -194q0 -157 -88.5 -265t-247.5 -134v-113q0 -26 -16.5 -42.5t-40.5 -16.5h-74q-24 0 -39.5 16.5t-15.5 42.5v115 q-63 12 -117.5 39.5t-103 75t-77 123.5t-28.5 172zM303 1075q0 -118 86 -164l25 -12l-2 332q-56 -22 -82.5 -65t-26.5 -91zM600 195q70 23 104.5 78.5t34.5 119.5q0 116 -129 182l-10 5v-385z" />
<glyph unicode="%" horiz-adv-x="1198" d="M119 948v217q0 103 57 170.5t162 67.5q107 0 162 -66.5t55 -171.5v-217q0 -95 -66.5 -160t-152.5 -65q-88 0 -152.5 63.5t-64.5 161.5zM268 977q0 -80 66 -80q69 0 69 80v164q0 82 -67 82q-68 0 -68 -82v-164zM340 59l442 1315q11 38 28 49t52 11h58q69 0 51 -60 l-445 -1315q-11 -37 -28 -48t-52 -11h-55q-35 0 -47.5 14t-3.5 45zM731 225v217q0 103 57 170.5t162 67.5q107 0 162 -66.5t55 -171.5v-217q0 -95 -66.5 -160t-152.5 -65q-88 0 -152.5 63.5t-64.5 161.5zM881 254q0 -80 65 -80q70 0 70 80v164q0 82 -68 82q-67 0 -67 -82 v-164z" />
<glyph unicode="&#x26;" horiz-adv-x="1208" d="M78 336q-1 111 37.5 187t109.5 139l117 104l-41 68q-77 137 -55.5 244.5t110 173t203.5 65.5q46 0 89 -9.5t83.5 -31.5t70.5 -54.5t48 -81.5t18 -110q0 -27 -15.5 -43t-39.5 -16h-76q-24 0 -39.5 16t-15.5 43q0 42 -28.5 80.5t-90.5 38.5q-55 0 -93.5 -32t-44.5 -77.5 t21 -93.5l345 -534q3 3 16.5 17t16.5 16.5t14 12t15.5 11.5t15 8t18.5 7.5t20 3t25 1.5h47q26 0 42.5 -16.5t16.5 -40.5v-59q0 -24 -16.5 -40t-42.5 -16q-28 -1 -38 -2.5t-25.5 -12t-32.5 -34.5q33 -57 62 -76.5t77 -19.5h25q26 0 42.5 -16.5t16.5 -40.5v-60 q0 -24 -16.5 -39.5t-42.5 -15.5h-33q-87 0 -115 7q-74 18 -140 116q-4 5 -7 10l-17 -18q-65 -72 -131 -100.5t-160 -28.5q-86 0 -156.5 29t-115.5 78.5t-69 111.5t-25 131zM256 336q0 -64 50 -121t136 -57q100 0 185 100l22 27l-213 329l-57 -51q-77 -69 -100 -112.5 t-23 -114.5z" />
<glyph unicode="'" horiz-adv-x="284" d="M80 1374q0 26 14.5 43t36.5 17h86q22 0 36.5 -17t14.5 -43l-26 -231q-3 -29 -15 -44.5t-28 -15.5h-49q-32 0 -44 60z" />
<glyph unicode="(" horiz-adv-x="630" d="M102 588v278q0 185 25.5 338.5t71 259.5t96.5 178t113 123q24 15 43 12t31 -15l12 -11l47 -61q4 -5 8.5 -13.5t2.5 -30.5t-22 -38q-70 -62 -113.5 -146.5t-69 -232.5t-25.5 -363v-278q0 -215 25.5 -363t69 -232.5t113.5 -146.5q20 -16 23 -36.5t-5 -33.5l-7 -12l-47 -61 q-2 -2 -4.5 -5t-12 -9.5t-19 -10t-23.5 -1.5t-27 12q-62 51 -113 123t-96.5 178t-71 259.5t-25.5 338.5z" />
<glyph unicode=")" horiz-adv-x="712" d="M124.5 1644.5q-2.5 20.5 5.5 33.5l7 12l47 61q2 2 4.5 5t12 9.5t19 10t23.5 1.5t27 -12q49 -40 90.5 -91.5t82 -130.5t69 -173.5t46 -224t17.5 -279.5v-278q0 -150 -17.5 -279.5t-46 -224t-69 -173.5t-82 -130.5t-90.5 -91.5q-24 -15 -43 -12t-31 15l-12 11l-47 61 q-4 5 -8.5 13.5t-3 30.5t21.5 38q106 94 157.5 261t51.5 481v278q0 314 -51.5 481t-157.5 261q-20 16 -22.5 36.5z" />
<glyph unicode="+" horiz-adv-x="643" d="M18 518v60q0 24 17 40.5t43 16.5h198v196q0 26 17 43t41 17h59q24 0 40 -17t16 -43v-196h194q26 0 42.5 -16.5t16.5 -40.5v-60q0 -24 -16.5 -39.5t-42.5 -15.5h-194v-197q0 -26 -16 -42.5t-40 -16.5h-59q-24 0 -41 16.5t-17 42.5v197h-198q-26 0 -43 16t-17 39z" />
<glyph unicode="," horiz-adv-x="407" d="M63 -197q0 15 11 25t32 10q45 0 63.5 40t18.5 122h-32q-24 0 -40 16.5t-16 42.5v95q0 26 16 42.5t40 16.5h102q24 0 39.5 -16.5t15.5 -42.5v-134q0 -122 -48 -197t-140 -75h-19q-21 0 -32 10t-11 25v20z" />
<glyph unicode="-" d="M106 518v60q0 24 17 40.5t43 16.5h354q26 0 43 -16.5t17 -40.5v-60q0 -23 -17 -39t-43 -16h-354q-26 0 -43 16t-17 39z" />
<glyph unicode="." horiz-adv-x="346" d="M90 59v95q0 26 15.5 42.5t39.5 16.5h103q24 0 39.5 -16.5t15.5 -42.5v-95q0 -26 -15.5 -42.5t-39.5 -16.5h-103q-24 0 -39.5 16.5t-15.5 42.5z" />
<glyph unicode="/" horiz-adv-x="671" d="M23 -12l493 1458q11 37 28 48t52 11h57q69 0 52 -59l-496 -1458q-11 -38 -28 -49t-52 -11h-55q-69 0 -51 60z" />
<glyph unicode="0" horiz-adv-x="970" d="M123 416v604q0 195 95 311.5t278 116.5t278.5 -116.5t95.5 -311.5v-604q0 -190 -102 -310t-272 -120t-271.5 120t-101.5 310zM322 449q0 -149 42 -212t132 -63t133 63.5t43 211.5v534q0 148 -42.5 209t-133.5 61t-132.5 -61t-41.5 -209v-534z" />
<glyph unicode="1" horiz-adv-x="862" d="M72 57v80q0 2 0.5 6t3.5 14t8.5 17.5t17 14t27.5 6.5h270v1044h-149q-26 0 -41 14.5t-17 28.5l-2 14v80q0 2 0.5 6t3.5 14t8.5 17.5t17.5 14t28 6.5h291q26 0 41 -15t16 -30l2 -15v-1179h268q25 0 39.5 -14.5t16.5 -28.5l2 -15v-80q0 -2 -0.5 -6t-4 -14t-9 -17.5 t-17.5 -13.5t-29 -6h-733q-26 0 -41 14t-16 28z" />
<glyph unicode="2" horiz-adv-x="884" d="M94 53v84q0 23 10 43l420 531q92 118 118 182.5t26 161.5q0 107 -48 162t-124 55q-79 0 -121.5 -54t-42.5 -149q0 -26 -16 -41t-32 -16l-16 -2h-80q-2 0 -6 0.5t-14 3.5t-17.5 8.5t-13.5 17.5t-6 29q0 177 98 278t260 101q99 0 174 -33.5t118 -90.5t64 -125t21 -144 q0 -107 -33 -208.5t-122 -213.5l-353 -438h443q26 0 41 -14.5t16 -28.5l2 -15v-84q-1 -6 -3.5 -15t-17 -23.5t-38.5 -14.5h-647q-24 0 -39 13t-18 27z" />
<glyph unicode="3" horiz-adv-x="946" d="M102 387q0 26 14 41t28 16l14 2h82q2 0 6.5 -0.5t15 -3.5t18.5 -8.5t14.5 -17.5t6.5 -29q0 -100 47 -153.5t131 -53.5q86 0 135.5 50t49.5 178q0 121 -45.5 177t-108.5 56h-43q-27 0 -42.5 15.5t-16.5 30.5l-2 15v74q0 6 1.5 16t17 26t42.5 16h45q135 0 135 217 q0 113 -44.5 157.5t-121.5 44.5q-82 0 -120.5 -45t-38.5 -139q0 -26 -15.5 -41t-30.5 -16l-16 -2h-80q-2 0 -6 0.5t-14 3.5t-17.5 8.5t-13.5 17.5t-6 29q0 177 98.5 278t259.5 101q178 0 271.5 -106.5t93.5 -290.5q0 -238 -105 -322q121 -98 121 -321q0 -197 -101 -308.5 t-282 -111.5q-87 0 -155 27.5t-109 69t-67.5 97t-36 105.5t-9.5 100z" />
<glyph unicode="4" horiz-adv-x="940" d="M39 383v61q0 62 12 82l416 867q11 16 25 26.5t22 12.5l8 2h162q2 0 6.5 -0.5t15 -4t18.5 -9.5t14.5 -18.5t6.5 -29.5v-856h76q27 0 42.5 -14t17.5 -28l2 -15v-76q0 -2 -0.5 -6.5t-4 -15t-9.5 -18.5t-19 -14.5t-31 -6.5h-74v-261q0 -27 -14.5 -42.5t-29.5 -16.5l-15 -2 h-78q-2 0 -6.5 0.5t-15 3.5t-18.5 9t-14.5 18.5t-6.5 29.5v261h-445q-18 0 -31 6.5t-18.5 15t-9 17.5t-3.5 15zM250 516h297v641z" />
<glyph unicode="5" horiz-adv-x="915" d="M82 406q0 26 14 41t28 17l15 1h84q2 0 6 -0.5t14 -3.5t17.5 -8.5t14 -17.5t6.5 -29q0 -128 45.5 -177t140.5 -49q178 0 178 242v117q0 223 -178 223q-79 0 -132.5 -24t-53.5 -74q0 -26 -14.5 -41t-28.5 -17l-15 -2h-84q-2 0 -6 0.5t-14 4t-17.5 9t-13.5 17.5t-6 29v708 q0 26 14 41t28 17l15 2h574q25 0 39.5 -14.5t15.5 -29.5l2 -14v-78q0 -2 -0.5 -6t-3.5 -14.5t-8.5 -18t-17 -14t-27.5 -6.5h-432v-324q70 37 186 37q92 0 165 -33t118.5 -89.5t69.5 -129t24 -155.5v-121q0 -194 -101.5 -315t-275.5 -121q-180 0 -282.5 111t-102.5 309z" />
<glyph unicode="6" horiz-adv-x="933" d="M106 424v590q0 209 105.5 321.5t277.5 112.5t273.5 -110t101.5 -275q0 -28 -14 -44t-28 -18l-15 -2h-80q-2 0 -6 0.5t-14 4t-17.5 9.5t-13.5 19t-6 31q0 190 -181 190q-87 0 -135.5 -51t-48.5 -188v-168q72 67 191 67q92 0 164 -33t117 -89.5t68 -129t23 -155.5v-82 q0 -197 -101.5 -316.5t-289.5 -119.5q-171 0 -271 121.5t-100 314.5zM305 430q0 -130 47 -189t125 -59q95 0 144 57.5t49 190.5v66q0 223 -172 223q-193 0 -193 -223v-66z" />
<glyph unicode="7" horiz-adv-x="825" d="M37 1296v80q0 2 0.5 6t3.5 14t8.5 17.5t17 14t27.5 6.5h643q25 0 39.5 -14.5t16.5 -29.5l2 -14v-96q0 -107 -62 -246l-420 -993q-20 -41 -59 -41h-86q-13 0 -20.5 0.5t-19.5 4.5t-16.5 11.5t-4 22.5t11.5 37l368 862l74 174q32 76 35 127h-500q-26 0 -41 14.5t-17 28.5z " />
<glyph unicode="8" horiz-adv-x="921" d="M102 406q0 92 30.5 190t103.5 160q-60 54 -88.5 137.5t-28.5 167.5q0 51 8 99t32.5 102t63 94t106 66t154.5 26q72 0 130.5 -17.5t96.5 -49t65 -69.5t41 -83.5t20 -85.5t6 -82q0 -85 -28 -166t-89 -137q47 -32 76.5 -75.5t41 -98t14.5 -89.5t3 -89q0 -41 -8 -85 t-24.5 -92.5t-46.5 -90.5t-70 -77t-99 -55t-129 -20q-85 0 -153 29t-109.5 74t-69.5 103t-38.5 111t-10.5 103zM301 406q0 -116 49.5 -171t132.5 -55q81 0 130 55.5t49 170.5q0 127 -49.5 190t-129.5 63q-83 0 -132.5 -62.5t-49.5 -190.5zM319 1061q0 -209 164 -209 q158 0 158 209q0 112 -42 153t-116 41q-85 0 -124.5 -47t-39.5 -147z" />
<glyph unicode="9" horiz-adv-x="942" d="M102 936v68q0 195 111.5 319.5t292.5 124.5q174 0 274.5 -124t100.5 -320v-572q0 -205 -104.5 -325.5t-284.5 -120.5q-177 0 -281.5 113t-104.5 284q0 27 15 42.5t30 16.5l15 2h82q2 0 6 -0.5t14 -3.5t17.5 -9t13.5 -18.5t6 -29.5q0 -102 52 -153.5t135 -51.5 q90 0 139 65t49 189v141q-76 -55 -184 -55q-95 0 -171 34t-124 92t-73.5 132.5t-25.5 159.5zM301 940q0 -114 51 -171.5t144 -57.5q87 0 135.5 52t48.5 157v84q0 130 -48 190.5t-126 60.5q-88 0 -146.5 -61t-58.5 -190v-64z" />
<glyph unicode=":" horiz-adv-x="360" d="M102 59v95q0 26 16 42.5t40 16.5h102q24 0 39.5 -16.5t15.5 -42.5v-95q0 -26 -15.5 -42.5t-39.5 -16.5h-102q-24 0 -40 16.5t-16 42.5zM102 629v94q0 26 16 42.5t40 16.5h102q24 0 39.5 -16.5t15.5 -42.5v-94q0 -26 -16 -43t-39 -17h-102q-24 0 -40 17t-16 43z" />
<glyph unicode=";" horiz-adv-x="376" d="M82 -197q0 15 11 25t32 10q45 0 63.5 40t18.5 122h-33q-24 0 -39.5 16.5t-15.5 42.5v95q0 26 15.5 42.5t39.5 16.5h102q24 0 40 -16.5t16 -42.5v-134q0 -122 -48.5 -197t-140.5 -75h-18q-21 0 -32 10t-11 25v20zM119 629v94q0 26 15.5 42.5t39.5 16.5h102q24 0 40 -16.5 t16 -42.5v-94q0 -26 -16 -43t-40 -17h-102q-23 0 -39 17t-16 43z" />
<glyph unicode="&#x3c;" horiz-adv-x="667" />
<glyph unicode="=" horiz-adv-x="993" d="M133 344v59q0 24 17 41t43 17h679q26 0 43 -17t17 -41v-59q0 -23 -17 -39t-43 -16h-679q-26 0 -43 16t-17 39zM133 690v60q0 24 17 40.5t43 16.5h679q26 0 43 -16.5t17 -40.5v-60q0 -23 -17 -39t-43 -16h-679q-26 0 -43 16t-17 39z" />
<glyph unicode="?" horiz-adv-x="886" d="M61 1069q0 177 98.5 278t260.5 101q99 0 174 -28.5t118 -78t64 -110t21 -131.5q0 -70 -13.5 -124.5t-54.5 -103.5l-158 -190q-21 -24 -25.5 -48.5t-4.5 -82.5v-168q0 -26 -16 -41t-32 -16l-16 -2h-80q-2 0 -6 0.5t-14 3.5t-17.5 8.5t-13.5 17.5t-6 29v168q0 146 61 219 l138 164q32 40 45.5 77.5t13.5 88.5q0 90 -41 131t-131 41q-53 0 -86.5 -13t-50 -42.5t-22 -62.5t-5.5 -85q0 -26 -16 -41t-32 -16l-15 -2h-80q-2 0 -6 0.5t-14 3.5t-17.5 8.5t-14 17.5t-6.5 29zM334 59v95q0 26 15.5 42.5t39.5 16.5h103q24 0 39.5 -16.5t15.5 -42.5v-95 q0 -26 -15.5 -42.5t-39.5 -16.5h-103q-24 0 -39.5 16.5t-15.5 42.5z" />
<glyph unicode="@" horiz-adv-x="1441" d="M113 373v348q0 50 6 100.5t24.5 114t47 119.5t78.5 111t114.5 94.5t159 63.5t207.5 24q124 0 237.5 -39.5t202.5 -112.5t142.5 -188.5t53.5 -255.5v-203q0 -129 -30 -235.5t-91.5 -190.5t-166.5 -131t-246 -47q-102 0 -187.5 30t-140 79t-84.5 109.5t-30 123.5 q0 127 51.5 197t189.5 104l244 59v86q0 64 -42 105t-105 41q-67 0 -102.5 -30t-35.5 -77q0 -27 -15.5 -43t-39.5 -16h-76q-24 0 -39.5 16t-15.5 43q0 126 91 202.5t233 76.5q141 0 237 -94t96 -269v-385q0 -27 -15.5 -43t-39.5 -16h-76q-24 0 -39.5 16t-15.5 43v164 l-215 -51q-29 -6 -47.5 -20t-25.5 -34t-9 -34t-2 -33q0 -59 71.5 -111.5t204.5 -52.5q81 0 138.5 18.5t94.5 52t58 89.5t29 121.5t8 158.5v160q0 93 -26 168.5t-69.5 126t-102.5 85t-122 50t-130 15.5q-100 0 -179.5 -28.5t-129.5 -75t-82.5 -110t-46 -128t-13.5 -134.5 v-307q0 -243 94.5 -365.5t333.5 -172.5q26 -6 38 -25t7 -43l-20 -78q-5 -24 -24 -35.5t-46 -5.5q-293 63 -431 232.5t-138 472.5z" />
<glyph unicode="A" horiz-adv-x="1122" d="M42 42q-1 3 -1 6q0 8 4 18l373 1318q6 22 21 34.5t27 13.5l11 2h170q5 0 13.5 -1.5t25.5 -14t23 -34.5l368 -1318q3 -11 3 -21q0 -15 -8 -25q-12 -16 -29 -18l-17 -2h-94q-18 0 -34.5 12.5t-23.5 36.5l-129 459h-364l-135 -459q-7 -23 -23.5 -36t-32.5 -13h-96h-3.5 t-9.5 1.5t-12 4t-12 7t-10 12t-5 17.5zM430 702h264l-129 517h-4z" />
<glyph unicode="B" horiz-adv-x="1044" d="M164 0v1434h362q208 0 312 -107t104 -285q0 -93 -36 -163t-91 -111q164 -89 164 -334q0 -85 -25 -160.5t-75 -138t-135.5 -99t-196.5 -36.5h-383zM362 193h185q107 0 170 62t63 175q0 68 -19 114.5t-55 71t-78 34t-98 9.5h-168v-466zM362 848h132q118 0 182.5 50.5 t64.5 143.5q0 195 -215 195h-164v-389z" />
<glyph unicode="C" horiz-adv-x="1069" d="M143 451v530q0 210 111 338.5t317 128.5q187 0 287.5 -96t124.5 -252q1 -8 1 -16q0 -41 -42 -54l-72 -18q-29 -8 -54.5 5.5t-29.5 39.5q-9 93 -64 144.5t-151 51.5q-119 0 -174 -65t-55 -207v-530q0 -142 55 -206.5t174 -64.5q222 0 222 271q0 26 14.5 41t28.5 16l14 2 h82q2 0 6 -0.5t14.5 -3.5t18 -8.5t14 -17.5t6.5 -29q0 -101 -23.5 -183t-72 -146.5t-131 -100t-193.5 -35.5q-206 0 -317 128t-111 337z" />
<glyph unicode="D" horiz-adv-x="1103" d="M164 0v1434h409q111 0 194 -35.5t132 -99.5t72.5 -146t23.5 -182v-508q0 -100 -23.5 -182t-72.5 -146t-132 -99.5t-194 -35.5h-409zM362 193h211q107 0 165.5 67t58.5 203v508q0 136 -58.5 203t-165.5 67h-211v-1048z" />
<glyph unicode="E" horiz-adv-x="1030" d="M164 0v1434h723q26 0 41 -14.5t16 -29.5l2 -14v-80q0 -2 -0.5 -6t-3.5 -14t-8.5 -17.5t-17 -13.5t-27.5 -6h-527v-420h390q26 0 41 -14.5t17 -28.5l1 -14v-80q0 -2 -0.5 -6t-3.5 -14t-8.5 -17.5t-17 -13.5t-27.5 -6h-392v-430h525q26 0 41 -14.5t16 -28.5l2 -15v-80 q0 -2 -0.5 -6t-3.5 -14t-8.5 -17.5t-17 -13.5t-27.5 -6h-725z" />
<glyph unicode="F" horiz-adv-x="989" d="M164 59v1375h684q26 0 41 -14.5t17 -29.5l1 -14v-84q-1 -6 -3.5 -15t-17 -23.5t-38.5 -14.5h-486v-420h351q26 0 41 -14.5t16 -28.5l2 -14v-84q-1 -6 -3.5 -15t-17 -23.5t-38.5 -14.5h-351v-570q-3 -24 -17.5 -38t-28.5 -15l-13 -2h-80q-2 0 -6 0.5t-14.5 3.5t-18 8.5 t-14 17.5t-6.5 29z" />
<glyph unicode="G" horiz-adv-x="1058" d="M123 453v530q0 138 43.5 240.5t138 163.5t232.5 61q97 0 172 -27t123 -75t76.5 -108t39.5 -134q1 -9 1 -16q0 -43 -42 -54l-78 -20q-28 -7 -49 6t-26 39q-14 92 -68 143t-149 51q-115 0 -165 -63.5t-50 -206.5v-530q0 -142 55 -207.5t174 -65.5q107 0 164 67.5t57 205.5 v77h-252q-26 0 -41 15t-17 30l-1 15v76q0 2 0.5 6t3.5 14.5t8.5 18t17.5 14t29 6.5h391q2 0 6.5 -0.5t14.5 -3.5t18 -8.5t14.5 -17.5t6.5 -29v-213q0 -101 -23.5 -183.5t-72 -147t-131 -100.5t-193.5 -36q-206 0 -317 128.5t-111 338.5z" />
<glyph unicode="H" horiz-adv-x="1140" d="M164 59v1315q0 26 14 41t28 17l15 2h80q2 0 6.5 -0.5t15 -4t18.5 -9t14.5 -17.5t6.5 -29v-534h453v534q0 26 14.5 41t28.5 17l14 2h80q3 0 7 -0.5t14.5 -4t19 -9t15 -17.5t6.5 -29v-1315q0 -26 -15 -41t-30 -16l-15 -2h-80q-2 0 -6 0.5t-14.5 3.5t-18 8.5t-14 17.5 t-6.5 29v586h-453v-586q0 -26 -15 -41t-29 -16l-15 -2h-80q-2 0 -6 0.5t-14.5 3.5t-18 8.5t-14 17.5t-6.5 29z" />
<glyph unicode="I" horiz-adv-x="452" d="M164 59v1315q0 26 14 41t28 17l15 2h80q2 0 6.5 -0.5t15 -4t18.5 -9t14.5 -17.5t6.5 -29v-1315q0 -26 -15 -41t-29 -16l-15 -2h-80q-2 0 -6 0.5t-14.5 3.5t-18 8.5t-14 17.5t-6.5 29z" />
<glyph unicode="J" horiz-adv-x="716" d="M92 45v74q0 2 0.5 6.5t4 15t9.5 18.5t18.5 14.5t29.5 6.5q276 0 276 273v921q0 26 14 41t28 17l15 2h82q2 0 6.5 -0.5t14.5 -4t18 -9t14.5 -17.5t6.5 -29v-921q0 -205 -126.5 -336t-348.5 -131q-27 0 -42.5 14.5t-17.5 29.5z" />
<glyph unicode="K" horiz-adv-x="1116" d="M164 59v1315q0 26 14 41t28 17l15 2h82q2 0 6 -0.5t14.5 -4t18 -9t14 -17.5t6.5 -29v-528l388 547q9 18 24.5 28.5t27.5 11.5l11 1h92q4 0 10 -0.5t19.5 -5t21.5 -12.5t8 -25t-14 -41l-370 -533l286 -512q35 -59 60 -84.5t59 -25.5h10q27 0 42.5 -15.5t17.5 -31.5l2 -15 v-72q0 -2 -0.5 -6.5t-4 -15t-9.5 -18.5t-18.5 -14.5t-29.5 -6.5h-41q-91 0 -151 49.5t-129 169.5l-238 410l-74 -105v-465q0 -26 -14 -41t-28 -16l-15 -2h-84q-2 0 -6 0.5t-14 3.5t-17.5 8.5t-13.5 17.5t-6 29z" />
<glyph unicode="L" horiz-adv-x="876" d="M164 0v1374q0 26 14 41t28 17l15 2h82q2 0 6 -0.5t14.5 -4t18 -9t14 -17.5t6.5 -29v-1179h408q27 0 42.5 -14.5t17.5 -28.5l1 -15v-78q0 -2 -0.5 -6t-3.5 -14.5t-9 -18t-18.5 -14t-29.5 -6.5h-606z" />
<glyph unicode="M" horiz-adv-x="1241" d="M164 59v1315q0 2 0.5 6.5t3.5 14.5t8.5 18t17.5 14.5t29 6.5h121q5 0 12 -1t24.5 -12.5t27.5 -31.5l229 -537l227 537q9 20 25 31.5t27 12.5l12 1h116q3 0 7 -0.5t14.5 -4t19 -9t15 -17.5t6.5 -29v-1315q0 -2 -0.5 -6t-4 -14.5t-9.5 -18t-18.5 -14t-29.5 -6.5h-75 q-3 0 -7 0.5t-14.5 3.5t-19 8.5t-15 17.5t-6.5 29l21 1012l-183 -459q-11 -27 -24 -35t-33 -8h-92q-22 0 -36 8t-25 35l-193 469l20 -1022q0 -2 -0.5 -6t-3.5 -14.5t-8.5 -18t-17.5 -14t-29 -6.5h-80q-2 0 -6 0.5t-14.5 3.5t-18 8.5t-14 17.5t-6.5 29z" />
<glyph unicode="N" horiz-adv-x="1159" d="M164 59v1315q0 2 0.5 6.5t3.5 14.5t8.5 18t17.5 14.5t29 6.5h123q5 0 12 -1t24.5 -12.5t27.5 -31.5l432 -1033l-13 1018q0 2 0.5 6.5t4 14.5t9 18t17.5 14.5t29 6.5h80q2 0 6 -0.5t14.5 -4t18 -9t14 -17.5t6.5 -29v-1315q0 -2 -0.5 -6t-3.5 -14.5t-8.5 -18t-17.5 -14 t-29 -6.5h-123q-5 0 -13 1t-25.5 12t-25.5 30l-430 1034l10 -1018q0 -2 -0.5 -6t-3.5 -14.5t-8.5 -18t-17.5 -14t-29 -6.5h-80q-2 0 -6 0.5t-14.5 3.5t-18 8.5t-14 17.5t-6.5 29z" />
<glyph unicode="O" horiz-adv-x="1101" d="M143 451v530q0 100 24 183t74 147.5t133.5 100.5t194.5 36t194.5 -36t132.5 -100.5t73 -147t24 -183.5v-530q0 -101 -24 -183t-73 -146.5t-132.5 -100t-194.5 -35.5t-194.5 35.5t-133.5 100t-74 147t-24 182.5zM342 451q0 -137 59.5 -204t167.5 -67t167 67t59 204v530 q0 137 -59 204.5t-167 67.5t-167.5 -67.5t-59.5 -204.5v-530z" />
<glyph unicode="P" horiz-adv-x="1040" d="M164 59v1375h344q112 0 195.5 -33t133.5 -93.5t74.5 -140t24.5 -178.5v-51q0 -99 -24.5 -178t-75 -139t-133.5 -92.5t-195 -32.5h-146v-437q0 -26 -14 -41t-28 -16l-15 -2h-82q-2 0 -6 0.5t-14.5 3.5t-18 8.5t-14 17.5t-6.5 29zM362 688h146q229 0 229 250v51 q0 254 -229 254h-146v-555z" />
<glyph unicode="Q" horiz-adv-x="1146" d="M143 451v530q0 100 24 183t74 147.5t133.5 100.5t194.5 36t194.5 -36t133.5 -100.5t74 -147.5t24 -183v-530q0 -79 -18.5 -153.5t-52.5 -109.5h73q24 0 39 -14t18 -28l3 -13v-72q0 -2 -0.5 -6.5t-4 -15t-9 -18.5t-17.5 -14.5t-29 -6.5h-43q-57 0 -85.5 1t-61 6.5 t-43.5 17.5q-84 -39 -195 -39t-194.5 35.5t-133.5 100t-74 147t-24 182.5zM344 451q0 -137 58.5 -204t166.5 -67q36 0 52 4l-97 154q-20 39 -8 57.5t37 21.5l25 3h73q44 0 62 -33l55 -88q27 66 27 152v530q0 137 -59 204.5t-167 67.5q-107 0 -166 -67.5t-59 -204.5v-530z " />
<glyph unicode="R" horiz-adv-x="1110" d="M166 59v1375h360q428 0 428 -426q0 -165 -60.5 -260t-186.5 -146l147 -311q56 -96 107 -96h30q26 0 41 -15.5t17 -31.5l2 -15v-72q0 -2 -0.5 -6.5t-4 -15t-9 -18.5t-17.5 -14.5t-29 -6.5h-43q-90 0 -150 49.5t-130 171.5l-160 348h-143v-510q0 -26 -14.5 -41t-28.5 -16 l-15 -2h-82q-2 0 -6 0.5t-14.5 3.5t-18 8.5t-14 17.5t-6.5 29zM365 764h161q121 0 175.5 60.5t54.5 187.5q0 131 -58 180t-172 49h-161v-477z" />
<glyph unicode="S" horiz-adv-x="995" d="M90 406q0 26 15 41t30 17l15 1h81q2 0 6 -0.5t14 -3.5t17.5 -8.5t14 -17.5t6.5 -29q0 -66 20 -112.5t54 -70t69.5 -33.5t77.5 -10q114 0 171.5 65t57.5 148q0 116 -129 182l-295 152q-67 34 -112 79.5t-65 95.5t-27 91t-7 88q0 170 117 268.5t289 98.5q179 0 283 -92 t127 -244q1 -8 1 -16q0 -41 -42 -54l-72 -18q-31 -8 -54 3t-30 42q-23 96 -72.5 137t-140.5 41q-107 0 -157 -51.5t-50 -120.5q0 -118 86 -164l352 -184q92 -49 144.5 -140t52.5 -194q0 -178 -114.5 -292.5t-313.5 -114.5q-54 0 -108.5 12t-111.5 43t-100.5 77t-71.5 120.5 t-28 167.5z" />
<glyph unicode="T" horiz-adv-x="985" d="M82 1296v78q0 2 0.5 6.5t3.5 14.5t8.5 18t17.5 14.5t29 6.5h738q26 0 41 -14.5t16 -29.5l2 -14v-78q0 -2 -0.5 -6t-3.5 -14.5t-8.5 -18t-17.5 -14t-29 -6.5h-271v-1180q0 -26 -14 -41t-28 -16l-15 -2h-82q-2 0 -6 0.5t-14.5 3.5t-18 8.5t-14 17.5t-6.5 29v1180h-269 q-26 0 -41 14.5t-16 28.5z" />
<glyph unicode="U" horiz-adv-x="1073" d="M133 518v856q0 26 14.5 41t28.5 17l14 2h82q2 0 6.5 -0.5t14.5 -4t18 -9t14.5 -17.5t6.5 -29v-866q0 -184 53 -256t174 -72q111 0 167 74t56 254v866q0 26 14.5 41t29.5 17l14 2h82q2 0 6 -0.5t14.5 -4t18 -9t14 -17.5t6.5 -29v-856q0 -111 -23.5 -204t-72.5 -168 t-132 -117.5t-194 -42.5q-108 0 -191.5 42t-133.5 115.5t-75.5 168t-25.5 206.5z" />
<glyph unicode="V" horiz-adv-x="1095" d="M94 1368q-3 10 -3 19q1 17 9 27q12 16 28 18l17 2h93q18 0 34 -13t23 -37l272 -1128h15l268 1128q7 24 23 37t34 13h92q3 0 7 -0.5t16 -3.5t18 -10q6 -8 12 -20q3 -6 3 -13q0 -9 -4 -19l-330 -1319q-5 -22 -20.5 -34t-28.5 -13l-13 -2h-172q-6 0 -14.5 1.5t-26 14 t-22.5 35.5z" />
<glyph unicode="W" horiz-adv-x="1542" d="M102 1368q-2 9 -2 17q0 17 9 29q13 16 29 18l16 2h92q18 0 34.5 -13t22.5 -37l201 -1128l188 1018q4 21 11 34t17.5 18t17 6t18.5 1h86q53 0 65 -59l187 -1018l202 1130q6 23 22.5 36.5t35.5 13.5h92q3 0 7 -0.5t15 -3.5t17 -10q6 -8 12 -20q3 -6 3 -14t-3 -18 l-252 -1319q-4 -23 -20 -35.5t-29 -13.5l-14 -2h-172q-6 0 -15.5 1.5t-28 16t-24.5 39.5l-143 887l-146 -893q-4 -23 -20 -35.5t-29 -13.5l-14 -2h-174q-6 0 -14.5 1.5t-25.5 14t-22 35.5z" />
<glyph unicode="X" horiz-adv-x="1169" d="M123 66l391 714l-324 588q-13 24 -14.5 38t11 20t23 7t32.5 1h90q15 0 22.5 -1t18.5 -9.5t20 -24.5l236 -434l233 434q8 16 19.5 24.5t19.5 9.5t23 1h90q22 0 32.5 -1t22.5 -7t10.5 -20t-14.5 -38l-326 -600l389 -702q12 -24 14 -38q0 -2 1 -3q0 -12 -11 -17 q-12 -6 -22.5 -7t-32.5 -1h-90q-15 0 -23 1t-19 9.5t-19 24.5l-303 545l-297 -545q-13 -24 -26.5 -29.5t-35.5 -5.5h-90q-22 0 -32.5 1t-22.5 7q-11 5 -11 17q0 14 15 41z" />
<glyph unicode="Y" horiz-adv-x="1103" d="M110 1422q9 12 42 12h112q18 0 34.5 -13t23.5 -37l282 -708h21l252 708q7 24 23 37t34 13h98q9 0 14.5 -0.5t15 -2t14.5 -6t10 -11.5q4 -5 4 -16q0 -13 -7 -30l-479 -1319q-9 -23 -18.5 -34.5t-16.5 -13t-22 -1.5h-94q-9 0 -14.5 0.5t-15 2t-14.5 6t-10 11t-4.5 18.5 t6.5 28l134 364h-19q-25 0 -37 31l-364 907q-9 25 -9 40q0 9 4 14z" />
<glyph unicode="Z" horiz-adv-x="1099" d="M133 53v84q0 23 10 43l602 1059h-552q-26 0 -41 14.5t-17 28.5l-2 14v84q1 6 3.5 15t17.5 24t39 15h735q6 -1 15 -3.5t23.5 -17.5t14.5 -39v-90q0 -20 -10 -43l-600 -1046h571q26 0 41 -14.5t17 -28.5l1 -15v-84q-1 -6 -3.5 -15t-17 -23.5t-38.5 -14.5h-749q-24 0 -39 13 t-18 27z" />
<glyph unicode="_" horiz-adv-x="1077" d="M72 -109q0 24 16.5 41t42.5 17h895q26 0 42.5 -17t16.5 -41v-41q0 -24 -16.5 -39.5t-42.5 -15.5h-895q-26 0 -42.5 15.5t-16.5 39.5v41z" />
<glyph unicode="`" horiz-adv-x="292" />
<glyph unicode="a" horiz-adv-x="882" d="M92 281q0 123 56.5 191.5t197.5 102.5l244 60v86q0 64 -42 104.5t-106 40.5q-67 0 -102 -29.5t-35 -76.5q0 -27 -15.5 -43.5t-39.5 -16.5h-76q-24 0 -39.5 16.5t-15.5 43.5q0 126 90.5 202t232.5 76q67 0 126.5 -22.5t106.5 -66t74 -114t27 -159.5v-617 q0 -26 -15.5 -42.5t-39.5 -16.5h-72q-24 0 -39.5 16.5t-15.5 42.5v19q-27 -41 -85.5 -66.5t-119.5 -25.5q-122 0 -209.5 85.5t-87.5 209.5zM279 289q0 -52 37.5 -91.5t93.5 -39.5q76 0 128 60t52 134v103l-215 -52q-96 -21 -96 -114z" />
<glyph unicode="b" horiz-adv-x="940" d="M143 59v1315q0 26 16 43t40 17h75q24 0 40 -17t16 -43v-411q22 33 73.5 54t114.5 21q148 0 230.5 -91.5t82.5 -266.5v-346q0 -150 -88.5 -249t-232.5 -99q-58 0 -108 24.5t-76 67.5v-19q0 -26 -16 -42.5t-40 -16.5h-71q-24 0 -40 16.5t-16 42.5zM328 324 q0 -73 47.5 -119.5t124.5 -46.5q67 0 106 41.5t39 124.5v370q0 172 -153 172q-84 0 -124 -51t-40 -121v-370z" />
<glyph unicode="c" horiz-adv-x="923" d="M133 352v303q0 101 30 177.5t81 120t110.5 64.5t124.5 21q54 0 103 -12t95.5 -38.5t79.5 -76t46 -116.5q1 -14 1.5 -26t-10.5 -22.5t-34 -17.5l-70 -16q-11 -3 -21 -3q-40 0 -48 48q-21 108 -142 108q-82 0 -121 -50.5t-39 -160.5v-303q0 -194 160 -194q74 0 115 45.5 t41 103.5q0 27 14.5 42.5t29.5 17.5l15 2h64q63 0 63 -64q0 -87 -33 -152t-86 -99.5t-109 -51t-114 -16.5q-169 0 -257.5 92.5t-88.5 273.5z" />
<glyph unicode="d" horiz-adv-x="907" d="M102 332v346q0 77 18 140.5t54.5 113.5t98 78t143.5 28q46 0 102 -20t84 -55v409q0 26 14 41t28 17l15 2h76q23 0 38 -17t15 -43v-1313q0 -26 -15.5 -42.5t-39.5 -16.5h-71q-24 0 -40 16.5t-16 42.5v19q-40 -50 -85.5 -71t-108.5 -21q-147 0 -228.5 89t-81.5 257z M289 317q0 -88 37.5 -123.5t103.5 -35.5q80 0 126 38.5t46 120.5v375q0 92 -49 133t-115 41q-149 0 -149 -174v-375z" />
<glyph unicode="e" horiz-adv-x="925" d="M133 317v363q0 158 95 258t264 100q143 0 236 -80.5t93 -214.5v-137q0 -42 -23.5 -73t-74.5 -39l-404 -76v-101q2 -67 45 -113t113 -46q83 0 120.5 44.5t37.5 110.5q0 27 14.5 42.5t29.5 17.5l15 2h64q63 0 63 -64q0 -139 -94 -232t-250 -93q-151 0 -247.5 94t-96.5 237z M319 594l316 61v88q0 60 -42 91.5t-112 31.5q-84 0 -123 -47.5t-39 -122.5v-102z" />
<glyph unicode="f" horiz-adv-x="649" d="M133 889v59q0 24 17 41t43 17h40v100q0 156 83 242t245 86h41q26 0 43 -17t17 -41v-59q0 -23 -17 -39t-43 -16h-41q-47 0 -77 -12.5t-43 -37.5t-17 -48t-4 -58v-100h170q26 0 42.5 -17t16.5 -41v-59q0 -24 -16.5 -39.5t-42.5 -15.5h-170v-775q0 -26 -17 -42.5t-41 -16.5 h-73q-24 0 -40 16.5t-16 42.5v775h-40q-26 0 -43 16t-17 39z" />
<glyph unicode="g" horiz-adv-x="987" d="M90 127q-1 8 -1 17q0 28 11 62q16 45 45 81l72 90q-31 31 -51 64t-27.5 67.5t-9.5 57t-2 55.5v43q0 169 88 271.5t248 102.5h160q80 0 110 27l29 27q18 18 40 18t42 -16l43 -39q18 -18 18 -40.5t-18 -41.5l-19 -23q-48 -58 -120 -73q43 -41 54 -88.5t11 -124.5v-56 q0 -136 -99.5 -230.5t-250.5 -94.5q-67 0 -111 22l-65 -82q-19 -26 -8.5 -37.5t47.5 -9.5l317 10h12q97 0 155 -64q62 -67 62 -185q0 -36 -8 -79t-33 -97.5t-63.5 -97.5t-107 -73t-156.5 -30q-168 0 -267.5 65t-99.5 170q0 56 15.5 113t31.5 86l15 29q-45 4 -74.5 34.5 t-34.5 69.5zM311 -168q0 -50 48 -77t126 -27q90 0 152 52q59 51 59 136v8q-1 49 -27 74q-24 22 -64 22h-7l-225 -8q-62 -84 -62 -180zM313 610q0 -59 39.5 -107t110.5 -48q66 0 115 45t49 110v54q0 202 -158 202q-42 0 -73.5 -18t-49 -48t-25.5 -64t-8 -72v-54z" />
<glyph unicode="h" horiz-adv-x="942" d="M154 59v1315q0 26 16 43t39 17h76q23 0 39 -17t16 -43v-422q9 27 58 56.5t132 29.5q147 0 226.5 -91t79.5 -267v-621q0 -26 -16 -42.5t-40 -16.5h-75q-24 0 -40 16.5t-16 42.5v635q0 172 -145 172q-84 0 -124 -51t-40 -121v-635q0 -26 -15.5 -42.5t-39.5 -16.5h-76 q-24 0 -39.5 16.5t-15.5 42.5z" />
<glyph unicode="i" horiz-adv-x="452" d="M154 1268v106q0 26 16 43t39 17h94q23 0 39 -17t16 -43v-106q0 -26 -16 -43t-39 -17h-94q-23 0 -39 17t-16 43zM162 59v906q0 26 15.5 42.5t39.5 16.5h76q24 0 39.5 -16.5t15.5 -42.5v-906q0 -26 -16.5 -42.5t-40.5 -16.5h-74q-24 0 -39.5 16.5t-15.5 42.5z" />
<glyph unicode="j" horiz-adv-x="505" d="M-20 -244q0 24 16.5 40t42.5 16h41q47 0 77 12.5t43 37t17 47.5t4 58v998q0 26 17 42.5t41 16.5h73q24 0 40 -16.5t16 -42.5v-998q0 -156 -82.5 -241.5t-245.5 -85.5h-41q-26 0 -42.5 16.5t-16.5 40.5v59zM215 1268v106q0 26 16 43t39 17h95q23 0 39 -17t16 -43v-106 q0 -26 -16 -43t-39 -17h-95q-23 0 -39 17t-16 43z" />
<glyph unicode="k" horiz-adv-x="858" d="M143 59v1315q0 26 16 43t40 17h73q24 0 41 -17t17 -43v-696l254 305q14 18 29.5 28.5t24.5 11.5l9 1h111q3 0 7.5 -0.5t14.5 -5t14.5 -12t1 -23.5t-19.5 -37l-287 -344l158 -323q31 -57 60.5 -82t66.5 -25h31q26 0 42.5 -16.5t16.5 -40.5v-60q0 -24 -16.5 -39.5 t-42.5 -15.5h-41q-89 0 -153.5 47t-125.5 158l-125 264l-30 -35v-375q0 -26 -17 -42.5t-41 -16.5h-73q-24 0 -40 16.5t-16 42.5z" />
<glyph unicode="l" horiz-adv-x="528" d="M147 313v1061q0 26 16 43t40 17h73q24 0 41 -17t17 -43v-1061q0 -35 4 -58t17 -47.5t43 -37t77 -12.5h41q26 0 42.5 -16t16.5 -40v-59q0 -24 -16.5 -40.5t-42.5 -16.5h-41q-163 0 -245.5 85.5t-82.5 241.5z" />
<glyph unicode="m" horiz-adv-x="1363" d="M143 59v906q0 26 16 42.5t40 16.5h75q24 0 40 -16.5t16 -42.5v-15q53 88 188 88q114 0 180 -98q63 98 222 98q65 0 116.5 -16t96 -54.5t68.5 -111t24 -176.5v-621q0 -26 -14.5 -41t-28.5 -16l-15 -2h-69q-2 0 -6.5 0.5t-14.5 3.5t-18 8.5t-14.5 17.5t-6.5 29v621 q0 42 -4.5 72t-16 57.5t-36 42t-61.5 14.5q-45 0 -86 -39t-41 -88v-680q0 -26 -14.5 -41t-28.5 -16l-15 -2h-71q-2 0 -6 0.5t-14 3.5t-17.5 8.5t-14 17.5t-6.5 29v680q0 49 -28.5 88t-88.5 39q-81 0 -120 -56.5t-39 -129.5v-621q0 -26 -15 -41t-30 -16l-15 -2h-69 q-2 0 -6 0.5t-14 3.5t-17.5 8.5t-14 17.5t-6.5 29z" />
<glyph unicode="n" horiz-adv-x="933" d="M143 59v906q0 26 16 42.5t40 16.5h75q24 0 40 -16.5t16 -42.5v-13q18 28 70.5 57t119.5 29q147 0 226 -91t79 -267v-621q0 -26 -15.5 -42.5t-39.5 -16.5h-76q-24 0 -39.5 16.5t-15.5 42.5v635q0 172 -145 172q-84 0 -124 -51t-40 -121v-635q0 -26 -16 -42.5t-40 -16.5 h-75q-24 0 -40 16.5t-16 42.5z" />
<glyph unicode="o" horiz-adv-x="864" d="M102 352v307q0 195 91 287t253 92t253.5 -92t91.5 -287v-307q0 -172 -93 -269t-249 -97h-5q-156 0 -249 97t-93 269zM289 352q0 -194 155 -194q160 0 160 194v307q0 96 -35 151.5t-123 55.5t-122.5 -55.5t-34.5 -151.5v-307z" />
<glyph unicode="p" horiz-adv-x="862" d="M92 -375v1340q0 26 15.5 42.5t39.5 16.5h76q24 0 40 -16.5t16 -42.5v-13q24 35 75.5 60.5t112.5 25.5q148 0 230.5 -91.5t82.5 -266.5v-346q0 -149 -86 -248.5t-219 -99.5q-60 0 -118 25t-83 67v-453q0 -26 -15.5 -42.5t-39.5 -16.5h-72q-24 0 -39.5 16.5t-15.5 42.5z M276 324q0 -73 48 -119.5t125 -46.5q67 0 106 41.5t39 124.5v370q0 80 -37.5 126t-116.5 46q-84 0 -124 -51t-40 -121v-370z" />
<glyph unicode="q" horiz-adv-x="903" d="M102 332v346q0 77 18 140.5t54.5 113.5t98 78t143.5 28q47 0 102 -22t84 -64v27q0 26 14 41t28 16l15 2h76q23 0 38 -16.5t15 -42.5v-1354q0 -26 -15.5 -42.5t-39.5 -16.5h-71q-24 0 -40 16.5t-16 42.5v453q-28 -41 -84 -66.5t-116 -25.5q-55 0 -108 22.5t-97.5 64.5 t-71.5 109.5t-27 149.5zM289 332q0 -87 39.5 -130.5t93.5 -43.5q84 0 132 59.5t48 136.5v338q0 92 -49 133t-115 41q-149 0 -149 -174v-360z" />
<glyph unicode="r" horiz-adv-x="544" d="M143 59v906q0 26 16 42.5t40 16.5h75q24 0 40 -16.5t16 -42.5v-13q51 51 91 68.5t126 17.5q26 0 42.5 -15.5t16.5 -39.5v-59q0 -24 -16.5 -41t-42.5 -17q-66 0 -111 -14.5t-67 -41t-30.5 -54t-8.5 -62.5v-635q0 -26 -16 -42.5t-40 -16.5h-75q-24 0 -40 16.5t-16 42.5z " />
<glyph unicode="s" horiz-adv-x="851" d="M117 313q0 27 14.5 42.5t28.5 17.5l14 2h59q64 0 64 -64q0 -153 147 -153q57 0 90 35t33 83q0 42 -19 73t-71 61l-168 98q-83 49 -119 117.5t-36 134.5q0 110 77.5 194t210.5 84q54 0 100 -10.5t90.5 -34.5t74 -71t38.5 -113q4 -27 -8 -44.5t-25 -21.5l-14 -4l-59 -8 q-23 -2 -43.5 12.5t-24.5 42.5q-14 86 -122 86q-43 0 -80 -32t-37 -80q0 -64 78 -109l145 -82q193 -107 193 -293q0 -114 -85.5 -202t-220.5 -88q-76 0 -135 22.5t-94 57t-57.5 80.5t-30.5 86.5t-8 80.5z" />
<glyph unicode="t" horiz-adv-x="698" d="M141 891v55q0 2 0.5 6.5t3.5 14.5t8.5 18t17.5 14.5t28 6.5h45v329q0 25 14 39.5t28 16.5l15 2h70q2 0 6 -0.5t14.5 -3.5t18 -8.5t14 -17.5t6.5 -28v-329h158q26 0 41 -14.5t17 -29.5l1 -14v-55q0 -2 -0.5 -6t-3.5 -14.5t-8.5 -18t-17.5 -14t-29 -6.5h-158v-506 q0 -85 36.5 -120.5t104.5 -35.5h33q25 0 39.5 -14t16.5 -28l2 -13v-58q0 -2 -0.5 -6t-3.5 -14.5t-8.5 -18t-17.5 -14t-28 -6.5h-33q-165 0 -246 76t-81 252v506h-45q-25 0 -39.5 14t-16.5 28z" />
<glyph unicode="u" horiz-adv-x="923" d="M133 346v619q0 26 15.5 42.5t39.5 16.5h76q24 0 39.5 -16.5t15.5 -42.5v-633q0 -88 45.5 -131t112.5 -43q77 0 123.5 45t46.5 129v633q0 26 15.5 42.5t39.5 16.5h76q24 0 40 -16.5t16 -42.5v-906q0 -26 -16 -42.5t-40 -16.5h-71q-24 0 -40 16.5t-16 42.5v19 q-31 -44 -84.5 -68t-107.5 -24q-146 0 -236 97.5t-90 262.5z" />
<glyph unicode="v" horiz-adv-x="808" d="M53 965q-2 9 -2 17q0 16 10 26q15 16 43 16h91q49 0 65 -59l180 -736l176 736q16 59 66 59h90q28 0 43 -16q10 -11 10 -26q0 -8 -2 -17l-262 -902q-16 -63 -57 -63h-125q-47 0 -62 59z" />
<glyph unicode="w" horiz-adv-x="1282" d="M68 965q-2 9 -2 17q0 16 10 26q15 16 43 16h90q49 0 65 -59l129 -734l170 734q16 59 66 59h104q50 0 66 -59l170 -734l129 734q16 59 66 59h90q28 0 43 -16q10 -11 10 -26q0 -8 -2 -17l-205 -906q-15 -59 -61 -59h-140q-44 0 -57 63l-162 670l-160 -670q-13 -63 -57 -63 h-137q-47 0 -62 59z" />
<glyph unicode="x" horiz-adv-x="811" d="M66 16q-7 8 -8 18q0 11 8 25l270 471l-221 437q-15 28 -0.5 43.5t51.5 15.5h55q25 0 42 -11.5t36 -47.5l147 -291l152 289q33 59 90 59h53q37 0 52 -15.5t0 -43.5l-240 -459l254 -447q8 -14 8 -25q1 -10 -7 -18q-14 -16 -52 -16h-62q-60 0 -90 59l-168 306l-162 -306 q-18 -35 -35 -47t-42 -12h-80q-37 0 -51 16z" />
<glyph unicode="y" horiz-adv-x="811" d="M57 965q-2 9 -2 16q0 17 11 27q15 16 43 16h90q49 0 65 -59l142 -701h4l180 701q16 59 65 59h90q28 0 43 -16q11 -10 11 -27q0 -7 -2 -16l-320 -1129q-20 -74 -50.5 -122.5t-73 -74t-90 -35.5t-113.5 -10q-26 0 -41 15.5t-17 30.5l-2 16v72q0 2 0.5 6.5t4 15t9 18.5 t17.5 14.5t29 6.5q125 0 145 78l33 133h-11q-24 0 -36 31z" />
<glyph unicode="z" horiz-adv-x="888" d="M90 57v52q0 11 4 22t8 17.5t10 14t7 9.5l450 680h-399q-26 0 -42.5 15.5t-16.5 39.5v60q0 24 16.5 40.5t42.5 16.5h584q26 0 42.5 -16.5t16.5 -40.5v-52q0 -11 -4 -22t-8 -17.5t-10 -14t-7 -9.5l-452 -680h444q26 0 43 -16t17 -39v-60q0 -24 -17 -40.5t-43 -16.5h-626 q-26 0 -43 16.5t-17 40.5z" />
<glyph unicode="&#xa8;" horiz-adv-x="702" d="M96 1268v86q0 26 16 42.5t40 16.5h94q24 0 39.5 -16.5t15.5 -42.5v-86q0 -26 -16 -43t-39 -17h-94q-24 0 -40 17t-16 43zM498 1268v86q0 26 15.5 42.5t39.5 16.5h94q24 0 39.5 -16.5t15.5 -42.5v-86q0 -26 -16 -43t-39 -17h-94q-23 0 -39 17t-16 43z" />
<glyph unicode="&#xab;" horiz-adv-x="755" d="M92 485l135 252q19 34 39 45t47 11h45q37 0 52 -16t0 -44l-136 -248l136 -247q15 -28 0 -44t-52 -16h-45q-27 0 -47.5 10.5t-38.5 44.5zM385 485l135 252q19 34 39 45t47 11h45q36 0 51 -16t0 -44l-135 -248l135 -247q15 -28 0 -44t-51 -16h-45q-27 0 -47.5 10.5 t-38.5 44.5z" />
<glyph unicode="&#xad;" d="M106 518v60q0 24 17 40.5t43 16.5h354q26 0 43 -16.5t17 -40.5v-60q0 -23 -17 -39t-43 -16h-354q-26 0 -43 16t-17 39z" />
<glyph unicode="&#xbb;" horiz-adv-x="757" d="M147 194q-15 16 0 44l136 247l-136 248q-15 28 0 44t52 16h45q27 0 47 -11t39 -45l135 -252l-135 -252q-18 -34 -38.5 -44.5t-47.5 -10.5h-45q-37 0 -52 16zM440 194q-15 16 0 44l135 247l-135 248q-15 28 0 44t52 16h45q27 0 47 -11t39 -45l135 -252l-135 -252 q-18 -34 -38.5 -44.5t-47.5 -10.5h-45q-37 0 -52 16z" />
<glyph unicode="&#xc4;" horiz-adv-x="1183" d="M81 41.5q-2 10.5 3 24.5l373 1318q6 22 21 34.5t26 13.5l12 2h170q5 0 13.5 -1.5t25.5 -14t23 -34.5l368 -1318q8 -29 -5 -45.5t-29 -18.5l-17 -2h-94q-18 0 -34.5 12.5t-23.5 36.5l-129 459h-364l-135 -459q-7 -23 -23.5 -36t-32.5 -13h-96h-3.5t-9.5 1.5t-12 4t-12 7 t-10 11.5t-5 17.5zM313 1636v86q0 26 16 43t40 17h94q23 0 39 -17t16 -43v-86q0 -26 -15.5 -42.5t-39.5 -16.5h-94q-24 0 -40 16.5t-16 42.5zM469 702h264l-129 517h-4zM715 1636v86q0 26 16 43t39 17h94q24 0 40 -17t16 -43v-86q0 -26 -16 -42.5t-40 -16.5h-94 q-24 0 -39.5 16.5t-15.5 42.5z" />
<glyph unicode="&#xcb;" horiz-adv-x="1007" d="M123 0v1434h723q26 0 41 -14.5t17 -29.5l1 -14v-80q0 -2 -0.5 -6t-3.5 -14t-8.5 -17.5t-17 -13.5t-27.5 -6h-526v-420h389q26 0 41 -14.5t16 -28.5l2 -14v-80q0 -2 -0.5 -6t-3.5 -14t-8.5 -17.5t-17 -13.5t-27.5 -6h-391v-430h524q26 0 41 -14.5t17 -28.5l1 -15v-80 q0 -2 -0.5 -6t-3.5 -14t-8.5 -17.5t-17 -13.5t-27.5 -6h-725zM131 1636v86q0 26 16 43t39 17h95q23 0 39 -17t16 -43v-86q0 -26 -15.5 -42.5t-39.5 -16.5h-95q-24 0 -39.5 16.5t-15.5 42.5zM532 1636v86q0 26 16 43t40 17h94q23 0 39 -17t16 -43v-86q0 -26 -15.5 -42.5 t-39.5 -16.5h-94q-24 0 -40 16.5t-16 42.5z" />
<glyph unicode="&#xd6;" horiz-adv-x="1097" d="M125 451v530q0 100 24 183t74 147.5t133.5 100.5t194.5 36t194.5 -36t132.5 -100.5t73 -147t24 -183.5v-530q0 -101 -24 -183t-73 -146.5t-132.5 -100t-194.5 -35.5t-194.5 35.5t-133.5 100t-74 147t-24 182.5zM231 1636v86q0 26 16 43t40 17h94q23 0 39 -17t16 -43v-86 q0 -26 -15.5 -42.5t-39.5 -16.5h-94q-24 0 -40 16.5t-16 42.5zM324 451q0 -137 59.5 -204t167.5 -67t166.5 67t58.5 204v530q0 137 -59 204.5t-166 67.5q-108 0 -167.5 -67.5t-59.5 -204.5v-530zM633 1636v86q0 26 16 43t39 17h94q24 0 40 -17t16 -43v-86q0 -26 -16 -42.5 t-40 -16.5h-94q-24 0 -39.5 16.5t-15.5 42.5z" />
<glyph unicode="&#xdc;" horiz-adv-x="1064" d="M119 518v856q0 26 14.5 41t28.5 17l14 2h82q2 0 6 -0.5t14.5 -4t18 -9t14 -17.5t6.5 -29v-866q0 -184 53.5 -256t174.5 -72q111 0 167 74t56 254v866q0 26 14 41t28 17l15 2h82q2 0 6.5 -0.5t14.5 -4t18 -9t14.5 -17.5t6.5 -29v-856q0 -111 -23.5 -204t-72.5 -168 t-132 -117.5t-194 -42.5q-108 0 -191.5 42t-133.5 115.5t-75.5 168t-25.5 206.5zM231 1636v86q0 26 16 43t40 17h94q23 0 39 -17t16 -43v-86q0 -26 -15.5 -42.5t-39.5 -16.5h-94q-24 0 -40 16.5t-16 42.5zM633 1636v86q0 26 16 43t39 17h94q24 0 40 -17t16 -43v-86 q0 -26 -16 -42.5t-40 -16.5h-94q-24 0 -39.5 16.5t-15.5 42.5z" />
<glyph unicode="&#xdf;" horiz-adv-x="944" d="M143 59v1006q0 49 10.5 99t37 102t65.5 91.5t103 65t143 25.5q70 0 129.5 -20t101 -54t71.5 -78t44 -91t14 -95q0 -47 -6.5 -84t-24 -75.5t-53 -69.5t-88.5 -52q111 -41 173.5 -143t62.5 -217q0 -74 -13.5 -140.5t-44 -127t-76 -105t-113.5 -70.5t-153 -26h-26 q-26 0 -43 16t-17 39v60q0 24 17 40.5t43 16.5h28q110 0 163.5 73t53.5 224q0 69 -31 132.5t-91.5 106t-135.5 42.5h-20q-26 1 -42.5 17.5t-16.5 39.5v59q0 24 16.5 41t42.5 17h22q80 0 132.5 45t52.5 141q0 76 -48 119t-124 43q-81 0 -128.5 -53t-47.5 -154v-1006 q0 -26 -16 -42.5t-40 -16.5h-71q-24 0 -40 16.5t-16 42.5z" />
<glyph unicode="&#xe4;" horiz-adv-x="862" d="M68 281q0 123 56.5 191.5t197.5 102.5l243 60v86q0 64 -41.5 104.5t-105.5 40.5q-67 0 -102 -29.5t-35 -76.5q0 -27 -16 -43.5t-40 -16.5h-75q-24 0 -40 16.5t-16 43.5q0 126 91 202t233 76q67 0 126.5 -22.5t106.5 -66t74 -114t27 -159.5v-617q0 -26 -16 -42.5 t-40 -16.5h-71q-24 0 -40 16.5t-16 42.5v19q-27 -41 -85 -66.5t-119 -25.5q-122 0 -209.5 85.5t-87.5 209.5zM211 1268v86q0 26 15.5 42.5t39.5 16.5h94q24 0 40 -16.5t16 -42.5v-86q0 -26 -16 -43t-40 -17h-94q-23 0 -39 17t-16 43zM254 289q0 -52 37.5 -91.5t93.5 -39.5 q76 0 128 60t52 134v103l-215 -52q-96 -21 -96 -114zM612 1268v86q0 26 16 42.5t40 16.5h94q24 0 39.5 -16.5t15.5 -42.5v-86q0 -26 -16 -43t-39 -17h-94q-24 0 -40 17t-16 43z" />
<glyph unicode="&#xeb;" horiz-adv-x="862" d="M104 317v363q0 158 95 258t264 100q143 0 236.5 -80.5t93.5 -214.5v-137q0 -42 -24 -73t-75 -39l-403 -76v-101q2 -67 45 -113t113 -46q83 0 120 44.5t37 110.5q0 27 15 42.5t30 17.5l15 2h63q64 0 64 -64q0 -139 -94 -232t-250 -93q-151 0 -248 94t-97 237zM129 1268v86 q0 26 15.5 42.5t39.5 16.5h95q24 0 39.5 -16.5t15.5 -42.5v-86q0 -26 -16 -43t-39 -17h-95q-23 0 -39 17t-16 43zM291 594l315 61v88q0 60 -41.5 91.5t-111.5 31.5q-84 0 -123 -47.5t-39 -122.5v-102zM530 1268v86q0 26 16 42.5t40 16.5h94q24 0 39.5 -16.5t15.5 -42.5v-86 q0 -26 -16 -43t-39 -17h-94q-24 0 -40 17t-16 43z" />
<glyph unicode="&#xf6;" horiz-adv-x="874" d="M109 352q0 -172 93 -269t249 -97h4q156 0 249 97t93 269v307q0 195 -91 287t-253 92t-253 -92t-91 -287v-307zM207 1268v86q0 26 15.5 42.5t39.5 16.5h94q24 0 40 -16.5t16 -42.5v-86q0 -26 -16 -43t-40 -17h-94q-23 0 -39 17t-16 43zM295 352v307q0 96 35 151.5 t123 55.5t122.5 -55.5t34.5 -151.5v-307q0 -194 -159 -194q-156 0 -156 194zM608 1268v86q0 26 16 42.5t40 16.5h94q24 0 39.5 -16.5t15.5 -42.5v-86q0 -26 -16 -43t-39 -17h-94q-24 0 -40 17t-16 43z" />
<glyph unicode="&#xfc;" horiz-adv-x="892" d="M115 346v619q0 26 15.5 42.5t39.5 16.5h76q24 0 39.5 -16.5t15.5 -42.5v-633q0 -88 45.5 -131t112.5 -43q77 0 123.5 45t46.5 129v633q0 26 15.5 42.5t39.5 16.5h76q24 0 39.5 -16.5t15.5 -42.5v-906q0 -26 -15.5 -42.5t-39.5 -16.5h-72q-24 0 -39.5 16.5t-15.5 42.5v19 q-31 -44 -85 -68t-108 -24q-146 0 -235.5 97t-89.5 263zM152 1268v86q0 26 15.5 42.5t39.5 16.5h94q24 0 39.5 -16.5t15.5 -42.5v-86q0 -26 -16 -43t-39 -17h-94q-23 0 -39 17t-16 43zM553 1268v86q0 26 15.5 42.5t39.5 16.5h94q24 0 40 -16.5t16 -42.5v-86q0 -26 -16 -43 t-40 -17h-94q-23 0 -39 17t-16 43z" />
<glyph unicode="&#x2000;" horiz-adv-x="891" />
<glyph unicode="&#x2001;" horiz-adv-x="1782" />
<glyph unicode="&#x2002;" horiz-adv-x="891" />
<glyph unicode="&#x2003;" horiz-adv-x="1782" />
<glyph unicode="&#x2004;" horiz-adv-x="594" />
<glyph unicode="&#x2005;" horiz-adv-x="445" />
<glyph unicode="&#x2006;" horiz-adv-x="297" />
<glyph unicode="&#x2007;" horiz-adv-x="297" />
<glyph unicode="&#x2008;" horiz-adv-x="222" />
<glyph unicode="&#x2009;" horiz-adv-x="356" />
<glyph unicode="&#x200a;" horiz-adv-x="99" />
<glyph unicode="&#x2010;" d="M106 518v60q0 24 17 40.5t43 16.5h354q26 0 43 -16.5t17 -40.5v-60q0 -23 -17 -39t-43 -16h-354q-26 0 -43 16t-17 39z" />
<glyph unicode="&#x2011;" d="M106 518v60q0 24 17 40.5t43 16.5h354q26 0 43 -16.5t17 -40.5v-60q0 -23 -17 -39t-43 -16h-354q-26 0 -43 16t-17 39z" />
<glyph unicode="&#x2012;" d="M106 518v60q0 24 17 40.5t43 16.5h354q26 0 43 -16.5t17 -40.5v-60q0 -23 -17 -39t-43 -16h-354q-26 0 -43 16t-17 39z" />
<glyph unicode="&#x2013;" horiz-adv-x="835" d="M72 518v60q0 24 16.5 40.5t42.5 16.5h633q26 0 42.5 -16.5t16.5 -40.5v-60q0 -24 -16.5 -39.5t-42.5 -15.5h-633q-26 0 -42.5 15.5t-16.5 39.5z" />
<glyph unicode="&#x2014;" horiz-adv-x="1118" d="M72 518v60q0 24 16.5 40.5t42.5 16.5h916q26 0 42.5 -16.5t16.5 -40.5v-60q0 -24 -16.5 -39.5t-42.5 -15.5h-916q-26 0 -42.5 15.5t-16.5 39.5z" />
<glyph unicode="&#x2018;" horiz-adv-x="352" d="M45 1237v133q0 122 48 197t140 75h19q21 0 32 -10t11 -24v-21q0 -15 -11 -25t-32 -10q-45 0 -63.5 -39.5t-18.5 -121.5h33q23 0 39 -17t16 -43v-94q0 -26 -15.5 -42.5t-39.5 -16.5h-103q-24 0 -39.5 16.5t-15.5 42.5z" />
<glyph unicode="&#x2019;" horiz-adv-x="368" d="M45 1085v21q0 15 11 25t32 10q45 0 63.5 40t18.5 122h-33q-24 0 -39.5 16.5t-15.5 42.5v94q0 26 16 43t39 17h103q23 0 39 -17t16 -43v-133q0 -122 -48.5 -197t-140.5 -75h-18q-21 0 -32 10t-11 24z" />
<glyph unicode="&#x201a;" horiz-adv-x="344" d="M39 -197q0 15 11 25t32 10q45 0 63.5 40t18.5 122h-33q-24 0 -39.5 16.5t-15.5 42.5v95q0 26 15.5 42.5t39.5 16.5h102q24 0 40 -16.5t16 -42.5v-134q0 -122 -48.5 -197t-140.5 -75h-18q-21 0 -32 10t-11 25v20z" />
<glyph unicode="&#x201c;" horiz-adv-x="663" d="M102 1237v133q0 122 48.5 197t140.5 75h18q21 0 32 -10t11 -24v-21q0 -15 -11 -25t-32 -10q-45 0 -63.5 -39.5t-18.5 -121.5h33q23 0 39 -17t16 -43v-94q0 -26 -15.5 -42.5t-39.5 -16.5h-102q-24 0 -40 16.5t-16 42.5zM391 1237v133q0 122 48.5 197t140.5 75h18 q21 0 32 -10t11 -24v-21q0 -15 -11 -25t-32 -10q-45 0 -63.5 -39.5t-18.5 -121.5h33q23 0 39 -17t16 -43v-94q0 -26 -15.5 -42.5t-39.5 -16.5h-103q-24 0 -39.5 16.5t-15.5 42.5z" />
<glyph unicode="&#x201d;" horiz-adv-x="671" d="M53 1085v21q0 15 11 25t32 10q45 0 63.5 40t18.5 122h-33q-24 0 -39.5 16.5t-15.5 42.5v94q0 26 16 43t39 17h103q23 0 39 -17t16 -43v-133q0 -122 -48 -197t-140 -75h-19q-21 0 -32 10t-11 24zM342 1085v21q0 15 11 25t32 10q45 0 63.5 40t18.5 122h-33 q-24 0 -39.5 16.5t-15.5 42.5v94q0 26 16 43t39 17h103q23 0 39 -17t16 -43v-133q0 -122 -48.5 -197t-140.5 -75h-18q-21 0 -32 10t-11 24z" />
<glyph unicode="&#x201e;" horiz-adv-x="649" d="M45 -197q0 15 11 25t32 10q45 0 63.5 40t18.5 122h-33q-24 0 -39.5 16.5t-15.5 42.5v95q0 26 15.5 42.5t39.5 16.5h103q24 0 39.5 -16.5t15.5 -42.5v-134q0 -122 -48.5 -197t-140.5 -75h-18q-21 0 -32 10t-11 25v20zM334 -197q0 15 11 25t32 10q45 0 63.5 40t18.5 122 h-33q-24 0 -39.5 16.5t-15.5 42.5v95q0 26 15.5 42.5t39.5 16.5h102q24 0 40 -16.5t16 -42.5v-134q0 -122 -48.5 -197t-140.5 -75h-18q-21 0 -32 10t-11 25v20z" />
<glyph unicode="&#x2026;" horiz-adv-x="950" d="M92 59v95q0 26 15.5 42.5t39.5 16.5h103q24 0 39.5 -16.5t15.5 -42.5v-95q0 -26 -15.5 -42.5t-39.5 -16.5h-103q-24 0 -39.5 16.5t-15.5 42.5zM442 59v95q0 26 16 42.5t40 16.5h102q24 0 39.5 -16.5t15.5 -42.5v-95q0 -26 -15.5 -42.5t-39.5 -16.5h-102q-24 0 -40 16.5 t-16 42.5zM793 59v95q0 26 15.5 42.5t39.5 16.5h102q24 0 40 -16.5t16 -42.5v-95q0 -26 -16 -42.5t-40 -16.5h-102q-24 0 -39.5 16.5t-15.5 42.5z" />
<glyph unicode="&#x202f;" horiz-adv-x="356" />
<glyph unicode="&#x205f;" horiz-adv-x="445" />
<glyph unicode="&#x20ac;" horiz-adv-x="1075" d="M123 416v604q0 195 95 311.5t278 116.5t278.5 -116.5t95.5 -311.5v-604q0 -190 -102 -310t-272 -120t-271.5 120t-101.5 310zM322 449q0 -149 42 -212t132 -63t133 63.5t43 211.5v534q0 148 -42.5 209t-133.5 61t-132.5 -61t-41.5 -209v-534z" />
<glyph unicode="&#x25fc;" horiz-adv-x="1024" d="M0 0v1024h1024v-1024h-1024z" />
</font>
</defs>
</svg>
